Coordinates
version=1
nRows=14
nColumns=36
inDegrees=yes

Units are S.I. units (second, meters, Newtons, ...)
If the header above contains a line with 'inDegrees', this indicates whether rotational values are in degrees (yes) or radians (no).

endheader
time	pelvis_tilt	pelvis_list	pelvis_rotation	pelvis_tx	pelvis_ty	pelvis_tz	hip_flexion_r	hip_adduction_r	hip_rotation_r	knee_angle_r	knee_angle_r_beta	ankle_angle_r	subtalar_angle_r	mtp_angle_r	hip_flexion_l	hip_adduction_l	hip_rotation_l	knee_angle_l	knee_angle_l_beta	ankle_angle_l	subtalar_angle_l	mtp_angle_l	lumbar_extension	lumbar_bending	lumbar_rotation	arm_flex_r	arm_add_r	arm_rot_r	elbow_flex_r	pro_sup_r	arm_flex_l	arm_add_l	arm_rot_l	elbow_flex_l	pro_sup_l
      0.00000000	     20.07866299	     -5.69408493	      4.60053033	      1.63776902	      0.98316689	     -0.08474494	     -1.24801196	      3.23267312	      1.14892721	      0.22208930	      0.00387619	      8.88484997	      4.86211658	     -6.32676109	    -27.04187289	     -1.90739283	      0.79766886	      0.25021628	      0.00436710	     23.84393352	      3.77720097	     -6.32676109	    -23.32644841	      6.40024832	     -2.48557092	     21.77766559	     -4.68691406	     62.47707435	     91.52454880	     78.39077350	     14.44510110	     -6.87345835	     59.22622836	    105.14693850	     91.13326858
      0.01666670	     19.91798332	     -5.10954589	      4.11711208	      1.63960146	      0.97926332	     -0.08239450	      0.30659204	      2.57049652	      1.63464268	      0.13970710	      0.00243835	     11.30654734	     10.14107828	     -6.80056232	    -26.71139947	     -1.06192424	      0.83211088	      0.88493947	      0.01544511	     23.27254201	      1.24321744	     -6.80056232	    -23.49095930	      4.72919697	     -1.25577454	     21.71546911	     -6.67908362	     62.28865695	     97.20462498	     85.14587359	     15.90669893	     -8.85998981	     57.18120361	    110.01552988	    101.78581671
      0.03333330	     17.42590035	     -4.08176610	      3.05796468	      1.64129590	      0.97295201	     -0.07977051	      3.93856339	      1.09612403	      1.68593017	      0.09634059	      0.00168146	     12.89178270	     11.61233486	     -7.00687198	    -23.14787660	      0.42089938	      0.14989188	      2.90345235	      0.05067480	     24.19316899	      0.69700328	     -7.00687198	    -19.83625550	      2.96460494	     -1.28162095	     21.15387042	     -5.55502235	     60.42651177	     98.43245229	     88.94157115	     16.01228429	     -9.48584497	     57.29586611	    110.46907511	    105.03216513
      0.05000000	     17.88731604	     -3.67149546	      3.81856752	      1.64052485	      0.97267666	     -0.08078958	      3.59058340	      0.30404226	      1.06805730	      0.09354217	      0.00163262	     15.00560396	     13.31472723	     -7.04987042	    -22.39040203	      0.61564572	      0.58965930	      4.95935614	      0.08655709	     26.04644798	      1.73572412	     -7.04987042	    -19.61665663	      2.52700499	     -2.42963401	     21.57739010	     -4.90668530	     59.90039564	     98.64368640	     88.47758300	     16.98021473	     -9.12206576	     57.61540252	    109.96151272	    103.56147238
      0.06666670	     18.56366776	     -3.74726823	      4.05141351	      1.64026532	      0.97549124	     -0.08102689	      2.71579774	      0.23293262	      1.17428957	      0.10532905	      0.00183834	     15.05515204	     13.96982464	     -7.12483958	    -22.09316076	      0.58110904	      0.50543163	      6.83210210	      0.11924268	     27.95130820	      2.53173779	     -7.12483958	    -19.91871315	      2.52413359	     -2.76393394	     21.84227451	     -4.66414418	     59.99220466	     98.24380495	     87.10036504	     17.68966658	     -8.30399794	     57.93399317	    108.77986845	    100.11007143
      0.08333330	     19.39448942	     -3.79199369	      4.31298880	      1.64014209	      0.97701756	     -0.08159901	      1.56248167	      0.17848897	      1.59057951	      0.12795600	      0.00223325	     13.87113819	     13.70685846	     -7.28604761	    -22.14985191	      0.54250624	      0.64709362	      8.18471802	      0.14285028	     29.28107892	      3.27050329	     -7.28604761	    -20.80187136	      2.59384861	     -2.93891314	     22.06513767	     -4.69738016	     60.05153608	     98.21552040	     93.24386282	     18.53065639	     -7.64475415	     58.44187260	    108.13789003	    101.23606049
      0.10000000	     20.31951748	     -3.72729775	      4.41306852	      1.63603133	      0.97822559	     -0.07876285	      0.52657055	      0.13018179	      2.39483552	      0.16403817	      0.00286301	     12.03426179	     12.81540905	     -7.32319979	    -22.41167781	      0.60708322	      0.68194371	      9.22455523	      0.16099886	     30.09593916	      3.69456266	     -7.32319979	    -22.06536695	      2.49100047	     -2.91636232	     22.58968866	     -4.52317255	     60.46197792	     97.83708574	     90.41870370	     19.41299682	     -7.28562433	     58.87902389	    107.66361846	     97.35233721
      0.11666670	     20.97029929	     -3.45788257	      4.82527902	      1.63944911	      0.98217736	     -0.08180814	     -0.33736646	     -0.17828338	      2.27704705	      0.20514797	      0.00358051	     10.50426900	     12.67033025	     -7.37597149	    -22.60283287	      0.78496135	      1.29411142	     10.03391935	      0.17512493	     30.56575017	      3.72573814	     -7.37597149	    -23.07115123	      2.42941807	     -3.28311285	     22.95895964	     -4.72597597	     61.17410200	     98.03891537	     87.78342665	     19.93744769	     -7.20187502	     59.54912111	    107.59760977	     93.04933363
      0.13333330	     21.33985704	     -3.15892957	      4.95079512	      1.63903530	      0.98257606	     -0.08163018	     -0.81818803	     -0.53785864	      2.58587733	      0.24634719	      0.00429957	      9.08300676	     12.30925955	     -7.38465894	    -22.68977771	      1.07266748	      1.66649387	     10.55422858	      0.18420604	     30.67551647	      3.63208225	     -7.38465894	    -23.58915778	      2.24649739	     -3.36187151	     23.03015422	     -4.66934474	     61.26177453	     97.60504880	     87.16103424	     20.20684191	     -7.03528692	     59.67922240	    107.27484567	     92.03256807
      0.15000000	     21.53803326	     -2.79904947	      5.04186605	      1.63891799	      0.98305311	     -0.08142123	     -1.09974345	     -0.97503574	      2.72931801	      0.27998433	      0.00488665	      7.94437032	     12.27482844	     -7.38944353	    -22.61836876	      1.40734616	      1.99411371	     11.00393919	      0.19205497	     30.74249611	      3.55283679	     -7.38944353	    -23.97121684	      1.98240147	     -3.47499709	     23.13819279	     -4.60368779	     61.38003180	     97.48631590	     87.22756062	     20.52235746	     -7.00282481	     59.91555925	    107.21359582	     91.78871142
      0.16666670	     21.66404810	     -2.47754418	      5.12755378	      1.63850070	      0.98300652	     -0.08126608	     -1.28194952	     -1.37186805	      2.95746918	      0.30669091	      0.00535277	      7.08283652	     12.16795035	     -7.39494796	    -22.55120364	      1.69488639	      2.22211490	     11.34210607	      0.19795710	     30.74347789	      3.53260856	     -7.39494796	    -24.16490854	      1.79401595	     -3.55845515	     23.14123896	     -4.59827295	     61.36598632	     97.28735718	     87.05413686	     20.82224929	     -6.92522254	     60.11004797	    107.15582070	     91.36170357
      0.18333330	     21.70720409	     -2.15555192	      5.00723578	      1.63834301	      0.98307897	     -0.08075968	     -1.31064745	     -1.75739826	      3.58836598	      0.32765784	      0.00571871	      6.31532724	     11.78912260	     -7.41049192	    -22.45397373	      2.01600107	      2.18060183	     11.53429171	      0.20131137	     30.69830459	      3.61579188	     -7.41049192	    -24.34086920	      1.45910867	     -3.28829666	     23.13678729	     -4.63689498	     61.25238161	     97.33641503	     87.75738143	     21.21249622	     -6.92633879	     60.52892798	    107.23442218	     91.38221926
      0.20000000	     21.74596901	     -1.86374601	      5.02298516	      1.63799686	      0.98295612	     -0.08044909	     -1.32828817	     -2.10294951	      3.82408991	      0.33492770	      0.00584559	      5.88680307	     11.81794487	     -7.41829502	    -22.38145771	      2.25741299	      2.25089108	     11.69252122	      0.20407299	     30.66915635	      3.74791117	     -7.41829502	    -24.36453280	      1.22697542	     -3.24978093	     23.05697940	     -4.53274484	     60.99098465	     97.02549542	     86.77108904	     21.41481384	     -6.90552231	     60.64965304	    107.07250801	     90.17780161
      0.21666670	     21.73970468	     -1.55393985	      5.01571271	      1.63792727	      0.98303258	     -0.08027731	     -1.30920917	     -2.47702243	      4.12312325	      0.33805023	      0.00590009	      5.53496921	     11.80361287	     -7.42760564	    -22.23848134	      2.53231024	      2.31967947	     11.84802842	      0.20678711	     30.54953266	      3.70741584	     -7.42760564	    -24.44734727	      0.94694304	     -3.09004992	     23.00933982	     -4.58731616	     60.88478261	     97.17193390	     86.28259788	     21.75058914	     -6.97944603	     61.10959659	    107.19054857	     89.44489340
